<?xml version="1.0" standalone="no"?><!DOCTYPE svg PUBLIC "-//W3C//DTD SVG 1.1//EN" "http://www.w3.org/Graphics/SVG/1.1/DTD/svg11.dtd"><svg t="1654367995187" class="icon" viewBox="0 0 1024 1024" version="1.1" xmlns="http://www.w3.org/2000/svg" p-id="1148" width="1200" height="1200" xmlns:xlink="http://www.w3.org/1999/xlink"><defs><style type="text/css">@font-face { font-family: feedback-iconfont; src: url("//at.alicdn.com/t/font_1031158_u69w8yhxdu.woff2?t=1630033759944") format("woff2"), url("//at.alicdn.com/t/font_1031158_u69w8yhxdu.woff?t=1630033759944") format("woff"), url("//at.alicdn.com/t/font_1031158_u69w8yhxdu.ttf?t=1630033759944") format("truetype"); }
</style></defs><path d="M942.0301355 651.46669232c25.12708107-96.4149735-1.10480686-185.53609897-44.97122262-260.26425922-49.32024207-92.88064972-175.56633804-205.20272827-205.01462021-230.736495 35.39622597-51.28346115 38.77158435-124.87767191 38.77158435-124.87767191s-0.27553989-0.14836703-0.78952594-0.35104772c-9.62268617-4.77955052-20.57008238-7.35743449-32.41165633-8.11914208-42.73776352-5.73334043-123.09858667-0.25964294-219.6248361 85.13640073-423.84860475 15.94287314-370.18331746 226.76634288-370.18331746 226.76634288-87.44271905 39.54653898-72.54504058 74.76657828-48.86984114 95.76851475 8.5059566 6.68315739 20.43496108 11.41899134 31.19159931 14.68175079 17.17882708 4.20197673 35.18824674 5.35447437 44.86789517 5.61279172l203.92968322 0.94584274c20.43496108 36.43347217 58.16929792 60.98695497 91.00486117 76.5310909 2.16589975 0.69414695 4.32517535 1.35650265 6.98254138 2.33811088 29.5953249 10.70762315 42.69404695 13.06163097 49.34408747 8.51390507 1.72344598-5.82474517 2.71300399-12.25620809 3.21639296-18.6042134l-5.1623908-71.94494829c273.54181918 22.37301043 376.13258558 227.99567268 376.13258557 227.99567267l-56.49486574 119.18804676c160.71635035-119.60665382 195.79067125 166.10659153 195.79067126 166.10659153C1046.15358991 734.61205436 942.0301355 651.46669232 942.0301355 651.46669232z" p-id="1149" fill="#41b883"></path></svg>